# Blender 4.3.0
# www.blender.org
mtllib roche_3.mtl
o Cylinder.008
v -0.270566 -0.037350 -0.344830
v -0.023527 -0.055722 -0.468059
v -0.218695 -0.093621 -0.323427
v -0.148986 -0.101406 -0.402152
v -0.162087 -0.047637 -0.436433
v -0.044012 -0.106612 -0.410563
v -0.085312 0.286643 -0.332359
v -0.016081 0.110314 -0.477886
v -0.263120 0.128686 -0.354657
v -0.054281 0.166811 -0.434232
v -0.139387 0.161765 -0.422144
v -0.150236 0.118722 -0.437477
v -0.198993 0.177573 -0.362047
v 0.078934 -0.060741 -0.475216
v 0.396974 -0.078559 -0.394836
v 0.123341 -0.115347 -0.431344
v 0.208829 -0.119202 -0.431706
v 0.217573 -0.065694 -0.453861
v 0.277020 -0.119200 -0.380001
v 0.190266 0.235676 -0.349512
v 0.399368 -0.025176 -0.397995
v 0.086380 0.105295 -0.485043
v 0.287579 0.116272 -0.393938
v 0.220638 0.144131 -0.447292
v 0.225019 0.100342 -0.463688
v 0.135577 0.157512 -0.447494
v 0.445083 -0.078248 -0.353139
v 0.542964 -0.057746 -0.073036
v 0.398504 -0.117706 -0.262722
v 0.477472 -0.117112 -0.192857
v 0.510947 -0.064510 -0.211577
v 0.486167 -0.111292 -0.087938
v 0.400538 0.237033 -0.167266
v 0.550409 0.108290 -0.082863
v 0.447477 -0.024865 -0.356298
v 0.505869 0.159902 -0.126557
v 0.493684 0.145893 -0.210640
v 0.509614 0.102179 -0.217025
v 0.431569 0.117201 -0.269140
v 0.550397 -0.052018 0.029369
v 0.463378 -0.032613 0.291289
v 0.507407 -0.102343 0.079346
v 0.507995 -0.097314 0.164772
v 0.529393 -0.042880 0.167848
v 0.456432 -0.090976 0.232775
v 0.418142 0.196537 0.113149
v 0.467881 0.067792 0.285347
v 0.554900 0.048387 0.023426
v 0.464481 0.088500 0.222152
v 0.515617 0.072637 0.154713
v 0.533896 0.057525 0.161906
v 0.515455 0.077133 0.068723
v 0.396183 -0.025014 0.368761
v 0.182037 0.045534 0.550151
v 0.339387 -0.078561 0.353859
v 0.269678 -0.070775 0.432583
v 0.287704 -0.014728 0.460364
v 0.164704 -0.065569 0.440995
v 0.240504 0.310481 0.317256
v 0.186332 0.141314 0.544482
v 0.403629 0.141022 0.358934
v 0.228745 0.178751 0.495269
v 0.283697 0.192720 0.421403
v 0.290745 0.150986 0.441753
v 0.344158 0.195963 0.360178
v 0.079575 0.050553 0.557308
v -0.286923 0.010253 0.447045
v -0.002648 -0.056835 0.461776
v -0.088137 -0.052979 0.462137
v -0.059063 0.055506 0.535954
v -0.227586 -0.047682 0.445978
v -0.040373 0.243281 0.341404
v -0.279477 0.176289 0.437218
v 0.083870 0.146333 0.551639
v -0.215350 0.225176 0.429828
v -0.046948 0.184195 0.509349
v -0.054768 0.151286 0.530285
v 0.038886 0.188050 0.508531
v -0.364631 0.009752 0.379695
v -0.417346 -0.004618 0.096967
v -0.371576 -0.048611 0.321180
v -0.432442 -0.049442 0.261031
v -0.447811 0.006793 0.266675
v -0.372940 -0.059224 0.140839
v -0.250646 0.241924 0.159158
v -0.409901 0.161417 0.087140
v -0.357185 0.175788 0.369867
v -0.360704 0.213634 0.124689
v -0.420633 0.213891 0.245444
v -0.440365 0.172828 0.256848
v -0.359340 0.224247 0.305030
v -0.508120 -0.007992 -0.028803
v -0.421101 -0.027397 -0.290723
v -0.470055 -0.067483 -0.072280
v -0.470643 -0.072513 -0.157706
v -0.487117 -0.017130 -0.167282
v -0.419080 -0.078851 -0.225709
v -0.213293 0.311144 -0.015369
v -0.313497 0.137515 -0.243654
v -0.417334 0.155690 -0.015265
v -0.306686 0.192884 -0.184962
v -0.358676 0.189696 -0.116395
v -0.379513 0.147782 -0.120213
v -0.374478 0.203021 -0.065064
vn -0.5912 0.2902 -0.7525
vn 0.9964 -0.0488 -0.0696
vn 0.7557 0.0049 0.6549
vn 0.0723 0.0557 0.9958
vn -0.6534 0.0739 0.7534
vn -0.8904 0.2611 0.3728
vn 0.6534 -0.0739 -0.7534
vn 0.0833 0.9965 0.0007
vn -0.0723 -0.0557 -0.9958
vn -0.5773 -0.6135 -0.5388
vn -0.1581 -0.6447 -0.7479
vn -0.3046 0.6394 -0.7059
vn -0.2003 0.4581 -0.8660
vn -0.5154 0.4816 -0.7089
vn 0.0607 -0.5056 -0.8606
vn 0.2792 -0.6568 -0.7005
vn 0.3949 0.7287 -0.5596
vn 0.6093 0.4539 -0.6502
vn 0.1219 0.4424 -0.8885
vn 0.5158 -0.8029 -0.2989
vn 0.7568 -0.6470 -0.0931
vn 0.4924 0.7293 -0.4750
vn 0.8589 0.4471 -0.2497
vn 0.5545 0.4481 -0.7012
vn 0.8680 -0.4843 0.1098
vn 0.7403 -0.4559 0.4942
vn 0.7373 0.6462 0.1971
vn 0.5580 0.7964 0.2334
vn 0.6217 0.7822 0.0416
vn 0.5231 -0.5948 0.6104
vn 0.1487 -0.6453 0.7493
vn 0.5248 0.6638 0.5329
vn 0.6957 0.2730 0.6644
vn 0.5600 0.5138 0.6499
vn -0.0985 -0.5823 0.8070
vn -0.2042 -0.4323 0.8783
vn 0.0346 0.9423 0.3329
vn -0.2694 0.5181 0.8118
vn -0.0677 0.6301 0.7735
vn -0.7054 -0.3850 0.5952
vn -0.8256 -0.5204 -0.2182
vn -0.1902 0.9801 -0.0562
vn -0.7418 0.6199 -0.2558
vn -0.6562 0.5598 0.5060
vn -0.9083 -0.4145 -0.0566
vn -0.7806 -0.4430 -0.4410
vn -0.4598 0.8246 -0.3297
vn -0.7267 0.5055 -0.4652
vn -0.8389 0.4209 -0.3450
vn -0.1087 -0.7015 -0.7044
vn -0.0265 0.5999 -0.7996
vn 0.0454 0.7070 -0.7058
vn -0.6183 0.0102 -0.7859
vn -0.2563 -0.0167 -0.9665
vn 0.3072 -0.0700 -0.9491
vn 0.1496 -0.0651 -0.9866
vn 0.2690 -0.9226 -0.2765
vn 0.5751 0.4736 -0.6670
vn 0.5057 0.6310 -0.5882
vn 0.9661 -0.0295 -0.2565
vn 0.9136 -0.0203 -0.4062
vn 0.7142 -0.6989 -0.0379
vn 0.6636 0.6877 0.2944
vn 0.6903 0.7090 0.1443
vn 0.8814 -0.0116 0.4723
vn 0.9877 -0.0353 0.1521
vn 0.5195 -0.6555 0.5481
vn 0.7380 0.6711 0.0706
vn 0.7323 0.6442 0.2208
vn 0.6812 0.0487 0.7305
vn 0.6209 0.0474 0.7825
vn 0.0393 -0.6926 0.7202
vn 0.0823 0.7577 0.6474
vn -0.0686 0.8715 0.4855
vn -0.3749 0.0715 0.9243
vn -0.1496 0.0651 0.9866
vn -0.5390 -0.5635 0.6261
vn -0.4709 0.6990 0.5381
vn -0.0674 0.9952 0.0704
vn -0.9833 0.0335 -0.1788
vn -0.8042 0.0710 0.5900
vn -0.7342 -0.5292 0.4252
vn -0.7332 0.6799 0.0152
vn -0.4736 0.8739 0.1099
vn -0.6994 0.5768 -0.4220
vn -0.8127 0.5338 -0.2338
vn -0.3292 -0.6856 -0.6493
vn -0.6480 0.6423 -0.4093
vn -0.5427 0.7760 -0.3214
vt 0.844383 0.456494
vt 0.871145 0.446720
vt 0.878185 0.463745
vt 0.855389 0.477426
vt 0.945739 0.208285
vt 0.957327 0.227112
vt 0.941505 0.228116
vt 0.933495 0.216307
vt 0.901790 0.241755
vt 0.911659 0.252267
vt 0.907251 0.267424
vt 0.891357 0.252084
vt 0.873606 0.285856
vt 0.881787 0.292355
vt 0.876206 0.302224
vt 0.866273 0.295938
vt 0.837234 0.338120
vt 0.856799 0.344890
vt 0.853047 0.356358
vt 0.833398 0.350876
vt 0.825978 0.397560
vt 0.854499 0.394640
vt 0.856265 0.410620
vt 0.832350 0.420757
vt 0.936056 0.557781
vt 0.941128 0.550988
vt 0.949747 0.556963
vt 0.944146 0.564490
vt 0.590681 0.103295
vt 0.562119 0.073681
vt 0.579452 0.026545
vt 0.592016 0.001464
vt 0.632791 0.001464
vt 0.661677 0.032595
vt 0.661853 0.075616
vt 0.631450 0.104005
vt 0.884472 0.511573
vt 0.902605 0.495232
vt 0.912927 0.505724
vt 0.895296 0.523201
vt 0.870216 0.495056
vt 0.862300 0.501754
vt 0.849028 0.489346
vt 0.872343 0.516958
vt 0.915107 0.459640
vt 0.905032 0.483494
vt 0.894948 0.475647
vt 0.889754 0.464161
vt 0.889612 0.479848
vt 0.911602 0.539089
vt 0.904782 0.546303
vt 0.893132 0.536727
vt 0.915033 0.557462
vt 0.945491 0.496071
vt 0.942286 0.522543
vt 0.932202 0.513447
vt 0.924478 0.503732
vt 0.928187 0.518934
vt 0.984917 0.185298
vt 0.963497 0.197437
vt 0.957592 0.189319
vt 0.969278 0.177229
vt 0.942665 0.196663
vt 0.983195 0.244066
vt 0.966812 0.232058
vt 0.976388 0.225198
vt 0.988365 0.219491
vt 0.974140 0.219038
vt 0.988727 0.192962
vt 0.916977 0.228097
vt 0.911484 0.221227
vt 0.921703 0.212236
vt 0.900342 0.229251
vt 0.942947 0.260549
vt 0.921022 0.251599
vt 0.927836 0.241828
vt 0.938826 0.237177
vt 0.925744 0.239242
vt 0.877770 0.267221
vt 0.870526 0.260504
vt 0.880417 0.246724
vt 0.857140 0.271543
vt 0.919868 0.299523
vt 0.890182 0.291043
vt 0.900677 0.285361
vt 0.909923 0.277825
vt 0.895600 0.281530
vt 0.856955 0.311097
vt 0.838148 0.307961
vt 0.842998 0.295223
vt 0.831153 0.328216
vt 0.892872 0.334838
vt 0.866318 0.342268
vt 0.872462 0.319490
vt 0.879443 0.310809
vt 0.867954 0.317235
vt 0.828820 0.369640
vt 0.820089 0.368509
vt 0.821835 0.354639
vt 0.813698 0.390162
vt 0.880985 0.376896
vt 0.864801 0.386728
vt 0.854851 0.372816
vt 0.859174 0.363958
vt 0.849551 0.372156
vt 0.835618 0.439579
vt 0.827005 0.442464
vt 0.822553 0.428430
vt 0.831892 0.456735
vt 0.897143 0.405062
vt 0.876635 0.435305
vt 0.869017 0.424324
vt 0.867272 0.416088
vt 0.862262 0.426871
vt 0.933804 0.580810
vt 0.970778 0.536955
vt 0.988727 0.516163
s 0
usemtl mine
f 93/1/1 99/2/1 9/3/1 1/4/1
f 28/5/2 34/6/2 48/7/2 40/8/2
f 41/9/3 47/10/3 61/11/3 53/12/3
f 54/13/4 60/14/4 74/15/4 66/16/4
f 67/17/5 73/18/5 87/19/5 79/20/5
f 80/21/6 86/22/6 100/23/6 92/24/6
f 15/25/7 21/26/7 35/27/7 27/28/7
f 20/29/8 7/30/8 98/31/8 85/32/8 72/33/8 59/34/8 46/35/8 33/36/8
f 2/37/9 8/38/9 22/39/9 14/40/9
f 1/4/10 5/41/10 4/42/10 3/43/10
f 2/37/11 6/44/11 4/42/11 5/41/11
f 7/45/12 10/46/12 11/47/12 13/48/12
f 8/38/13 12/49/13 11/47/13 10/46/13
f 9/3/14 13/48/14 11/47/14 12/49/14
f 14/40/15 18/50/15 17/51/15 16/52/15
f 15/25/16 19/53/16 17/51/16 18/50/16
f 20/54/17 23/55/17 24/56/17 26/57/17
f 21/26/18 25/58/18 24/56/18 23/55/18
f 22/39/19 26/57/19 24/56/19 25/58/19
f 27/59/20 31/60/20 30/61/20 29/62/20
f 28/5/21 32/63/21 30/61/21 31/60/21
f 33/64/22 36/65/22 37/66/22 39/67/22
f 34/6/23 38/68/23 37/66/23 36/65/23
f 35/69/24 39/67/24 37/66/24 38/68/24
f 40/8/25 44/70/25 43/71/25 42/72/25
f 41/9/26 45/73/26 43/71/26 44/70/26
f 46/74/27 49/75/27 50/76/27 52/77/27
f 47/10/28 51/78/28 50/76/28 49/75/28
f 48/7/29 52/77/29 50/76/29 51/78/29
f 53/12/30 57/79/30 56/80/30 55/81/30
f 54/13/31 58/82/31 56/80/31 57/79/31
f 59/83/32 62/84/32 63/85/32 65/86/32
f 60/14/33 64/87/33 63/85/33 62/84/33
f 61/11/34 65/86/34 63/85/34 64/87/34
f 66/16/35 70/88/35 69/89/35 68/90/35
f 67/17/36 71/91/36 69/89/36 70/88/36
f 72/92/37 75/93/37 76/94/37 78/95/37
f 73/18/38 77/96/38 76/94/38 75/93/38
f 74/15/39 78/95/39 76/94/39 77/96/39
f 79/20/40 83/97/40 82/98/40 81/99/40
f 80/21/41 84/100/41 82/98/41 83/97/41
f 85/101/42 88/102/42 89/103/42 91/104/42
f 86/22/43 90/105/43 89/103/43 88/102/43
f 87/19/44 91/104/44 89/103/44 90/105/44
f 92/24/45 96/106/45 95/107/45 94/108/45
f 93/1/46 97/109/46 95/107/46 96/106/46
f 98/110/47 101/111/47 102/112/47 104/113/47
f 99/2/48 103/114/48 102/112/48 101/111/48
f 100/23/49 104/113/49 102/112/49 103/114/49
f 2/37/50 14/40/50 16/52/50 6/44/50
f 22/39/51 8/38/51 10/46/51 26/57/51
f 26/57/52 10/46/52 7/45/52 20/54/52
f 1/4/53 9/3/53 12/49/53 5/41/53
f 5/41/54 12/49/54 8/38/54 2/37/54
f 21/26/55 15/25/55 18/50/55 25/58/55
f 25/58/56 18/50/56 14/40/56 22/39/56
f 15/25/57 27/28/57 29/115/57 19/53/57
f 35/27/58 21/26/58 23/55/58 39/116/58
f 39/116/59 23/55/59 20/54/59 33/117/59
f 34/6/60 28/5/60 31/60/60 38/68/60
f 38/68/61 31/60/61 27/59/61 35/69/61
f 28/5/62 40/8/62 42/72/62 32/63/62
f 48/7/63 34/6/63 36/65/63 52/77/63
f 52/77/64 36/65/64 33/64/64 46/74/64
f 47/10/65 41/9/65 44/70/65 51/78/65
f 51/78/66 44/70/66 40/8/66 48/7/66
f 41/9/67 53/12/67 55/81/67 45/73/67
f 61/11/68 47/10/68 49/75/68 65/86/68
f 65/86/69 49/75/69 46/74/69 59/83/69
f 60/14/70 54/13/70 57/79/70 64/87/70
f 64/87/71 57/79/71 53/12/71 61/11/71
f 54/13/72 66/16/72 68/90/72 58/82/72
f 74/15/73 60/14/73 62/84/73 78/95/73
f 78/95/74 62/84/74 59/83/74 72/92/74
f 73/18/75 67/17/75 70/88/75 77/96/75
f 77/96/76 70/88/76 66/16/76 74/15/76
f 67/17/77 79/20/77 81/99/77 71/91/77
f 87/19/78 73/18/78 75/93/78 91/104/78
f 91/104/79 75/93/79 72/92/79 85/101/79
f 86/22/80 80/21/80 83/97/80 90/105/80
f 90/105/81 83/97/81 79/20/81 87/19/81
f 80/21/82 92/24/82 94/108/82 84/100/82
f 100/23/83 86/22/83 88/102/83 104/113/83
f 104/113/84 88/102/84 85/101/84 98/110/84
f 99/2/85 93/1/85 96/106/85 103/114/85
f 103/114/86 96/106/86 92/24/86 100/23/86
f 93/1/87 1/4/87 3/43/87 97/109/87
f 9/3/88 99/2/88 101/111/88 13/48/88
f 13/48/89 101/111/89 98/110/89 7/45/89
