# Blender v3.6.15 OBJ File: ''
# www.blender.org
o SM_carriere_v02.002
v -2.213466 4.324461 -0.042344
v -2.202486 4.324461 -0.031363
v -2.187485 4.324461 -0.027344
v -2.172486 4.324461 -0.031363
v -2.161505 4.324461 -0.042344
v -2.157486 4.324461 -0.057344
v -2.161505 4.324461 -0.072344
v -2.172486 4.324461 -0.083324
v -2.187485 4.324461 -0.087344
v -2.202486 4.324461 -0.083325
v -2.213466 4.324461 -0.072344
v -2.217485 4.324461 -0.057344
v -2.213466 4.445172 -0.042344
v -2.202486 4.445172 -0.031363
v -2.187485 4.445172 -0.027344
v -2.172486 4.445172 -0.031363
v -2.161505 4.445172 -0.042344
v -2.157486 4.445172 -0.057344
v -2.161505 4.445172 -0.072344
v -2.172486 4.445172 -0.083324
v -2.187485 4.445172 -0.087344
v -2.202486 4.445172 -0.083325
v -2.213466 4.445172 -0.072344
v -2.217485 4.445172 -0.057344
v -2.213466 4.544204 -0.042344
v -2.202486 4.544204 -0.031363
v -2.187485 4.544204 -0.027344
v -2.172486 4.544204 -0.031363
v -2.161505 4.544204 -0.042344
v -2.157486 4.544204 -0.057344
v -2.161505 4.544204 -0.072344
v -2.172486 4.544204 -0.083324
v -2.187485 4.544204 -0.087344
v -2.202486 4.544204 -0.083324
v -2.213466 4.544204 -0.072344
v -2.217485 4.544204 -0.057344
v -2.213466 4.624655 -0.042344
v -2.202486 4.624655 -0.031363
v -2.187485 4.624655 -0.027344
v -2.172486 4.624655 -0.031363
v -2.161505 4.624655 -0.042344
v -2.157486 4.624655 -0.057344
v -2.161505 4.624655 -0.072344
v -2.172486 4.624655 -0.083324
v -2.187485 4.624655 -0.087344
v -2.202486 4.624655 -0.083324
v -2.213466 4.624655 -0.072344
v -2.217485 4.624655 -0.057344
v -2.213466 4.689621 -0.042344
v -2.202486 4.689621 -0.031363
v -2.187485 4.689621 -0.027344
v -2.172486 4.689621 -0.031363
v -2.161505 4.689621 -0.042344
v -2.157486 4.689621 -0.057344
v -2.161505 4.689621 -0.072344
v -2.172486 4.689621 -0.083324
v -2.187485 4.689621 -0.087344
v -2.202486 4.689621 -0.083324
v -2.213466 4.689621 -0.072344
v -2.217485 4.689621 -0.057344
v -2.213466 4.742199 -0.042344
v -2.202486 4.742199 -0.031363
v -2.187485 4.742199 -0.027344
v -2.172486 4.742199 -0.031363
v -2.161505 4.742199 -0.042344
v -2.157486 4.742199 -0.057344
v -2.161505 4.742199 -0.072344
v -2.172486 4.742199 -0.083324
v -2.187485 4.742199 -0.087344
v -2.202486 4.742199 -0.083324
v -2.213466 4.742199 -0.072344
v -2.217485 4.742199 -0.057344
v -2.213466 4.785486 -0.042344
v -2.202486 4.785486 -0.031363
v -2.187485 4.785486 -0.027344
v -2.172486 4.785486 -0.031363
v -2.161505 4.785486 -0.042344
v -2.157486 4.785486 -0.057344
v -2.161505 4.785486 -0.072344
v -2.172486 4.785486 -0.083324
v -2.187485 4.785486 -0.087344
v -2.202486 4.785486 -0.083324
v -2.213466 4.785486 -0.072344
v -2.217485 4.785486 -0.057344
v -2.213466 4.822579 -0.042343
v -2.202486 4.822579 -0.031363
v -2.187485 4.822579 -0.027343
v -2.172486 4.822579 -0.031363
v -2.161505 4.822579 -0.042343
v -2.157486 4.822579 -0.057343
v -2.161505 4.822579 -0.072343
v -2.172486 4.822579 -0.083324
v -2.187485 4.822579 -0.087343
v -2.202486 4.822579 -0.083324
v -2.213466 4.822579 -0.072344
v -2.217485 4.822579 -0.057344
v -2.213466 4.856576 -0.042343
v -2.202486 4.856576 -0.031363
v -2.187485 4.856576 -0.027343
v -2.172486 4.856576 -0.031363
v -2.161505 4.856576 -0.042343
v -2.157486 4.856576 -0.057343
v -2.161505 4.856576 -0.072343
v -2.172486 4.856576 -0.083324
v -2.187485 4.856576 -0.087343
v -2.202486 4.856576 -0.083324
v -2.213466 4.856576 -0.072343
v -2.217485 4.856576 -0.057343
v -2.213466 4.890572 -0.042343
v -2.202486 4.890572 -0.031363
v -2.187485 4.890572 -0.027343
v -2.172486 4.890572 -0.031363
v -2.161505 4.890572 -0.042343
v -2.157486 4.890572 -0.057343
v -2.161505 4.890572 -0.072343
v -2.172486 4.890572 -0.083324
v -2.187485 4.890572 -0.087343
v -2.202486 4.890572 -0.083324
v -2.213466 4.890572 -0.072343
v -2.217485 4.890572 -0.057343
v -2.213466 4.927665 -0.042343
v -2.202486 4.927665 -0.031363
v -2.187485 4.927665 -0.027343
v -2.172486 4.927665 -0.031363
v -2.161505 4.927665 -0.042343
v -2.157486 4.927665 -0.057343
v -2.161505 4.927665 -0.072343
v -2.172486 4.927665 -0.083324
v -2.187485 4.927665 -0.087343
v -2.202486 4.927665 -0.083324
v -2.213466 4.927665 -0.072343
v -2.217485 4.927665 -0.057343
v -2.213466 4.970953 -0.042343
v -2.202486 4.970953 -0.031362
v -2.187485 4.970953 -0.027343
v -2.172486 4.970953 -0.031362
v -2.161505 4.970953 -0.042343
v -2.157486 4.970953 -0.057343
v -2.161505 4.970953 -0.072343
v -2.172486 4.970953 -0.083324
v -2.187485 4.970953 -0.087343
v -2.202486 4.970953 -0.083324
v -2.213466 4.970953 -0.072343
v -2.217485 4.970953 -0.057343
v -2.213466 5.023531 -0.042343
v -2.202486 5.023531 -0.031362
v -2.187485 5.023531 -0.027343
v -2.172486 5.023531 -0.031362
v -2.161505 5.023531 -0.042343
v -2.157486 5.023531 -0.057343
v -2.161505 5.023531 -0.072343
v -2.172486 5.023531 -0.083324
v -2.187485 5.023531 -0.087343
v -2.202486 5.023531 -0.083324
v -2.213466 5.023531 -0.072343
v -2.217485 5.023531 -0.057343
v -2.213466 5.088497 -0.042343
v -2.202486 5.088497 -0.031362
v -2.187485 5.088497 -0.027343
v -2.172486 5.088497 -0.031362
v -2.161505 5.088497 -0.042343
v -2.157486 5.088497 -0.057343
v -2.161505 5.088497 -0.072343
v -2.172486 5.088497 -0.083324
v -2.187485 5.088497 -0.087343
v -2.202486 5.088497 -0.083324
v -2.213466 5.088497 -0.072343
v -2.217485 5.088497 -0.057343
v -2.213466 5.168947 -0.042343
v -2.202486 5.168947 -0.031362
v -2.187485 5.168947 -0.027343
v -2.172486 5.168947 -0.031362
v -2.161505 5.168947 -0.042343
v -2.157486 5.168947 -0.057343
v -2.161505 5.168947 -0.072343
v -2.172486 5.168947 -0.083324
v -2.187485 5.168947 -0.087343
v -2.202486 5.168947 -0.083324
v -2.213466 5.168947 -0.072343
v -2.217485 5.168947 -0.057343
v -2.213466 5.267979 -0.042343
v -2.202486 5.267979 -0.031362
v -2.187485 5.267979 -0.027343
v -2.172486 5.267979 -0.031362
v -2.161505 5.267979 -0.042343
v -2.157486 5.267979 -0.057343
v -2.161505 5.267979 -0.072343
v -2.172486 5.267979 -0.083324
v -2.187485 5.267979 -0.087343
v -2.202486 5.267979 -0.083324
v -2.213466 5.267979 -0.072343
v -2.217485 5.267979 -0.057343
v -2.213457 5.389367 -0.042343
v -2.202480 5.389081 -0.031362
v -2.187485 5.388691 -0.027343
v -2.172491 5.388300 -0.031362
v -2.161514 5.388014 -0.042343
v -2.157496 5.387909 -0.057343
v -2.161514 5.388014 -0.072343
v -2.172491 5.388300 -0.083324
v -2.187485 5.388691 -0.087343
v -2.202480 5.389081 -0.083324
v -2.213457 5.389367 -0.072343
v -2.217475 5.389472 -0.057343
vt 0.947824 0.753401
vt 0.947823 0.761992
vt 0.946718 0.761992
vt 0.946719 0.753401
vt 0.948930 0.753401
vt 0.948928 0.761993
vt 0.950035 0.753401
vt 0.950034 0.761993
vt 0.951140 0.753401
vt 0.951139 0.761993
vt 0.952246 0.753402
vt 0.952244 0.761993
vt 0.953351 0.753402
vt 0.953349 0.761993
vt 0.941193 0.753400
vt 0.941191 0.761991
vt 0.940086 0.761991
vt 0.940087 0.753400
vt 0.942298 0.753400
vt 0.942297 0.761992
vt 0.943403 0.753400
vt 0.943402 0.761992
vt 0.944508 0.753400
vt 0.944507 0.761992
vt 0.945614 0.753401
vt 0.945612 0.761992
vt 0.947822 0.769041
vt 0.946717 0.769041
vt 0.948927 0.769041
vt 0.950032 0.769041
vt 0.951138 0.769042
vt 0.952243 0.769042
vt 0.953348 0.769042
vt 0.941190 0.769040
vt 0.940085 0.769040
vt 0.942295 0.769040
vt 0.943401 0.769040
vt 0.944506 0.769041
vt 0.945611 0.769041
vt 0.947821 0.774767
vt 0.946716 0.774767
vt 0.948926 0.774767
vt 0.950032 0.774768
vt 0.951137 0.774768
vt 0.952242 0.774768
vt 0.953347 0.774768
vt 0.941189 0.774766
vt 0.940084 0.774766
vt 0.942295 0.774766
vt 0.943400 0.774766
vt 0.944505 0.774767
vt 0.945610 0.774767
vt 0.947820 0.779391
vt 0.946715 0.779391
vt 0.948925 0.779391
vt 0.950031 0.779392
vt 0.951136 0.779392
vt 0.952241 0.779392
vt 0.953346 0.779392
vt 0.941188 0.779390
vt 0.940083 0.779390
vt 0.942294 0.779390
vt 0.943399 0.779391
vt 0.944504 0.779391
vt 0.945610 0.779391
vt 0.947819 0.783133
vt 0.946714 0.783133
vt 0.948925 0.783134
vt 0.950030 0.783134
vt 0.951135 0.783134
vt 0.952241 0.783134
vt 0.953346 0.783134
vt 0.941188 0.783132
vt 0.940083 0.783132
vt 0.942293 0.783132
vt 0.943398 0.783133
vt 0.944504 0.783133
vt 0.945609 0.783133
vt 0.947819 0.786214
vt 0.946714 0.786214
vt 0.948924 0.786215
vt 0.950030 0.786215
vt 0.951135 0.786215
vt 0.952240 0.786215
vt 0.953345 0.786215
vt 0.941187 0.786213
vt 0.940082 0.786213
vt 0.942293 0.786213
vt 0.943398 0.786214
vt 0.944503 0.786214
vt 0.945608 0.786214
vt 0.947819 0.788854
vt 0.946713 0.788854
vt 0.948924 0.788855
vt 0.950029 0.788855
vt 0.951135 0.788855
vt 0.952240 0.788855
vt 0.953345 0.788855
vt 0.941187 0.788853
vt 0.940082 0.788853
vt 0.942292 0.788854
vt 0.943397 0.788854
vt 0.944503 0.788854
vt 0.945608 0.788854
vt 0.947818 0.791274
vt 0.946713 0.791274
vt 0.948924 0.791274
vt 0.950029 0.791274
vt 0.951134 0.791275
vt 0.952239 0.791275
vt 0.953345 0.791275
vt 0.941186 0.791273
vt 0.940081 0.791273
vt 0.942292 0.791273
vt 0.943397 0.791273
vt 0.944502 0.791274
vt 0.945608 0.791274
vt 0.947818 0.793694
vt 0.946712 0.793694
vt 0.948923 0.793694
vt 0.950029 0.793694
vt 0.951134 0.793694
vt 0.952239 0.793694
vt 0.953344 0.793695
vt 0.941186 0.793693
vt 0.940081 0.793693
vt 0.942291 0.793693
vt 0.943397 0.793693
vt 0.944502 0.793693
vt 0.945607 0.793693
vt 0.947817 0.796334
vt 0.946712 0.796334
vt 0.948923 0.796334
vt 0.950028 0.796334
vt 0.951134 0.796334
vt 0.952239 0.796335
vt 0.953344 0.796335
vt 0.941185 0.796333
vt 0.940080 0.796333
vt 0.942291 0.796333
vt 0.943396 0.796333
vt 0.944501 0.796333
vt 0.945607 0.796333
vt 0.947817 0.799415
vt 0.946712 0.799415
vt 0.948923 0.799415
vt 0.950028 0.799415
vt 0.951133 0.799415
vt 0.952239 0.799416
vt 0.953344 0.799416
vt 0.941185 0.799414
vt 0.940079 0.799414
vt 0.942290 0.799414
vt 0.943395 0.799414
vt 0.944501 0.799414
vt 0.945606 0.799415
vt 0.947817 0.803157
vt 0.946711 0.803157
vt 0.948922 0.803157
vt 0.950028 0.803157
vt 0.951133 0.803158
vt 0.952239 0.803158
vt 0.953344 0.803158
vt 0.941183 0.803157
vt 0.940078 0.803157
vt 0.942289 0.803157
vt 0.943394 0.803157
vt 0.944500 0.803157
vt 0.945606 0.803157
vt 0.947817 0.807780
vt 0.946711 0.807780
vt 0.948923 0.807781
vt 0.950029 0.807781
vt 0.951134 0.807782
vt 0.952240 0.807782
vt 0.953345 0.807783
vt 0.941181 0.807781
vt 0.940076 0.807781
vt 0.942287 0.807781
vt 0.943393 0.807781
vt 0.944499 0.807780
vt 0.945605 0.807780
vt 0.947818 0.813505
vt 0.946710 0.813504
vt 0.948925 0.813505
vt 0.950032 0.813507
vt 0.951138 0.813508
vt 0.952244 0.813510
vt 0.953350 0.813511
vt 0.941176 0.813510
vt 0.940071 0.813511
vt 0.942282 0.813508
vt 0.943389 0.813506
vt 0.944496 0.813505
vt 0.945603 0.813504
vt 0.947822 0.820543
vt 0.946710 0.820541
vt 0.948933 0.820548
vt 0.950042 0.820554
vt 0.951149 0.820561
vt 0.952256 0.820568
vt 0.953361 0.820574
vt 0.941165 0.820569
vt 0.940060 0.820575
vt 0.942272 0.820562
vt 0.943379 0.820555
vt 0.944488 0.820548
vt 0.945599 0.820543
vt 0.947822 0.829116
vt 0.946711 0.829112
vt 0.948932 0.829127
vt 0.950040 0.829142
vt 0.951146 0.829159
vt 0.952252 0.829175
vt 0.953357 0.829189
vt 0.941170 0.829176
vt 0.940065 0.829190
vt 0.942276 0.829160
vt 0.943382 0.829143
vt 0.944490 0.829127
vt 0.945600 0.829116
vn -0.8660 0.0000 0.5000
vn -1.0000 -0.0000 -0.0000
vn -1.0000 0.0001 -0.0000
vn -0.5000 0.0000 0.8660
vn -0.5000 -0.0001 0.8660
vn 0.0000 0.0000 1.0000
vn 0.5000 0.0000 0.8660
vn 0.8660 0.0000 0.5000
vn 1.0000 0.0000 -0.0000
vn 1.0000 -0.0001 -0.0000
vn 0.8660 0.0000 -0.5000
vn 1.0000 0.0001 0.0000
vn 0.5000 0.0000 -0.8660
vn 0.0000 0.0000 -1.0000
vn -0.5000 0.0000 -0.8660
vn -0.8660 0.0000 -0.5000
vn -0.5000 0.0001 -0.8660
vn -1.0000 -0.0001 0.0000
vn -0.5000 -0.0001 -0.8660
vn -0.8660 0.0001 0.5000
vn 0.5000 0.0001 -0.8660
vn -0.5000 0.0001 0.8660
vn 0.8660 -0.0001 0.5000
vn 0.5000 -0.0001 -0.8660
vn -0.8660 -0.0001 0.5000
vn 0.8660 0.0001 0.5000
vn 0.5000 0.0001 0.8660
vn -0.8660 -0.0001 -0.5000
vn 0.0000 -0.0001 1.0000
vn -0.8669 0.0228 0.4980
vn -0.9997 0.0263 0.0000
vn -0.5032 0.0132 0.8641
vn -0.0043 0.0001 1.0000
vn 0.4968 -0.0128 0.8678
vn 0.8648 -0.0223 0.5017
vn 0.9997 -0.0257 0.0000
vn 0.8648 -0.0223 -0.5017
vn 0.4968 -0.0128 -0.8678
vn -0.0043 0.0001 -1.0000
vn -0.5032 0.0132 -0.8641
vn -0.8669 0.0228 -0.4980
vn -0.8660 0.0001 -0.5000
s off
f 1/1/1 13/2/1 24/3/2 12/4/3
f 2/5/4 14/6/5 13/2/1 1/1/1
f 3/7/6 15/8/6 14/6/4 2/5/4
f 4/9/7 16/10/7 15/8/6 3/7/6
f 5/11/8 17/12/8 16/10/7 4/9/7
f 6/13/9 18/14/10 17/12/8 5/11/8
f 7/15/11 19/16/11 18/17/9 6/18/12
f 8/19/13 20/20/13 19/16/11 7/15/11
f 9/21/14 21/22/14 20/20/13 8/19/13
f 10/23/15 22/24/15 21/22/14 9/21/14
f 11/25/16 23/26/16 22/24/15 10/23/17
f 12/4/2 24/3/18 23/26/16 11/25/16
f 13/2/1 25/27/1 36/28/2 24/3/3
f 14/6/4 26/29/4 25/27/1 13/2/1
f 15/8/6 27/30/6 26/29/4 14/6/4
f 16/10/7 28/31/7 27/30/6 15/8/6
f 17/12/8 29/32/8 28/31/7 16/10/7
f 18/14/9 30/33/10 29/32/8 17/12/8
f 19/16/11 31/34/11 30/35/9 18/17/12
f 20/20/13 32/36/13 31/34/11 19/16/11
f 21/22/14 33/37/14 32/36/13 20/20/13
f 22/24/15 34/38/15 33/37/14 21/22/14
f 23/26/16 35/39/16 34/38/15 22/24/19
f 24/3/2 36/28/18 35/39/16 23/26/16
f 25/27/1 37/40/1 48/41/2 36/28/2
f 26/29/4 38/42/4 37/40/1 25/27/20
f 27/30/6 39/43/6 38/42/4 26/29/4
f 28/31/7 40/44/7 39/43/6 27/30/6
f 29/32/8 41/45/8 40/44/7 28/31/7
f 30/33/9 42/46/9 41/45/8 29/32/8
f 31/34/11 43/47/11 42/48/9 30/35/9
f 32/36/13 44/49/13 43/47/11 31/34/11
f 33/37/14 45/50/14 44/49/13 32/36/21
f 34/38/15 46/51/15 45/50/14 33/37/14
f 35/39/16 47/52/16 46/51/15 34/38/15
f 36/28/2 48/41/2 47/52/16 35/39/16
f 37/40/1 49/53/1 60/54/2 48/41/2
f 38/42/4 50/55/4 49/53/1 37/40/1
f 39/43/6 51/56/6 50/55/4 38/42/22
f 40/44/7 52/57/7 51/56/6 39/43/6
f 41/45/8 53/58/8 52/57/7 40/44/7
f 42/46/9 54/59/9 53/58/8 41/45/8
f 43/47/11 55/60/11 54/61/9 42/48/9
f 44/49/13 56/62/13 55/60/11 43/47/11
f 45/50/14 57/63/14 56/62/13 44/49/13
f 46/51/15 58/64/15 57/63/14 45/50/14
f 47/52/16 59/65/16 58/64/15 46/51/15
f 48/41/2 60/54/2 59/65/16 47/52/16
f 49/53/1 61/66/1 72/67/2 60/54/2
f 50/55/4 62/68/4 61/66/1 49/53/1
f 51/56/6 63/69/6 62/68/4 50/55/4
f 52/57/7 64/70/7 63/69/6 51/56/6
f 53/58/8 65/71/23 64/70/7 52/57/7
f 54/59/9 66/72/9 65/71/8 53/58/8
f 55/60/11 67/73/11 66/74/9 54/61/9
f 56/62/13 68/75/24 67/73/11 55/60/11
f 57/63/14 69/76/14 68/75/13 56/62/13
f 58/64/15 70/77/15 69/76/14 57/63/14
f 59/65/16 71/78/16 70/77/15 58/64/15
f 60/54/2 72/67/2 71/78/16 59/65/16
f 61/66/1 73/79/25 84/80/2 72/67/3
f 62/68/4 74/81/4 73/79/1 61/66/1
f 63/69/6 75/82/6 74/81/4 62/68/4
f 64/70/7 76/83/7 75/82/6 63/69/6
f 65/71/8 77/84/8 76/83/7 64/70/7
f 66/72/9 78/85/10 77/84/8 65/71/26
f 67/73/11 79/86/11 78/87/9 66/74/12
f 68/75/13 80/88/13 79/86/11 67/73/11
f 69/76/14 81/89/14 80/88/13 68/75/21
f 70/77/15 82/90/19 81/89/14 69/76/14
f 71/78/16 83/91/16 82/90/15 70/77/15
f 72/67/2 84/80/18 83/91/16 71/78/16
f 73/79/1 85/92/1 96/93/2 84/80/2
f 74/81/4 86/94/4 85/92/1 73/79/1
f 75/82/6 87/95/6 86/94/4 74/81/4
f 76/83/7 88/96/7 87/95/6 75/82/6
f 77/84/8 89/97/8 88/96/7 76/83/27
f 78/85/9 90/98/9 89/97/8 77/84/8
f 79/86/11 91/99/11 90/100/9 78/87/9
f 80/88/13 92/101/13 91/99/11 79/86/11
f 81/89/14 93/102/14 92/101/13 80/88/13
f 82/90/15 94/103/15 93/102/14 81/89/14
f 83/91/16 95/104/16 94/103/15 82/90/15
f 84/80/2 96/93/2 95/104/16 83/91/16
f 85/92/1 97/105/1 108/106/2 96/93/2
f 86/94/4 98/107/4 97/105/1 85/92/1
f 87/95/6 99/108/6 98/107/4 86/94/4
f 88/96/7 100/109/7 99/108/6 87/95/6
f 89/97/8 101/110/8 100/109/7 88/96/7
f 90/98/9 102/111/9 101/110/8 89/97/8
f 91/99/11 103/112/11 102/113/9 90/100/9
f 92/101/13 104/114/13 103/112/11 91/99/11
f 93/102/14 105/115/14 104/114/13 92/101/13
f 94/103/15 106/116/15 105/115/14 93/102/14
f 95/104/16 107/117/16 106/116/15 94/103/15
f 96/93/2 108/106/2 107/117/16 95/104/16
f 97/105/1 109/118/1 120/119/2 108/106/2
f 98/107/4 110/120/4 109/118/1 97/105/1
f 99/108/6 111/121/6 110/120/4 98/107/4
f 100/109/7 112/122/7 111/121/6 99/108/6
f 101/110/8 113/123/8 112/122/7 100/109/7
f 102/111/9 114/124/9 113/123/8 101/110/8
f 103/112/11 115/125/11 114/126/9 102/113/9
f 104/114/13 116/127/13 115/125/11 103/112/11
f 105/115/14 117/128/14 116/127/13 104/114/13
f 106/116/15 118/129/15 117/128/14 105/115/14
f 107/117/16 119/130/16 118/129/15 106/116/15
f 108/106/2 120/119/2 119/130/16 107/117/16
f 109/118/1 121/131/1 132/132/2 120/119/2
f 110/120/4 122/133/4 121/131/1 109/118/20
f 111/121/6 123/134/6 122/133/4 110/120/4
f 112/122/7 124/135/7 123/134/6 111/121/6
f 113/123/8 125/136/23 124/135/7 112/122/27
f 114/124/9 126/137/9 125/136/8 113/123/8
f 115/125/11 127/138/11 126/139/9 114/126/9
f 116/127/13 128/140/13 127/138/11 115/125/11
f 117/128/14 129/141/14 128/140/13 116/127/13
f 118/129/15 130/142/15 129/141/14 117/128/14
f 119/130/16 131/143/16 130/142/15 118/129/15
f 120/119/2 132/132/2 131/143/16 119/130/16
f 121/131/1 133/144/1 144/145/2 132/132/3
f 122/133/4 134/146/4 133/144/1 121/131/20
f 123/134/6 135/147/6 134/146/4 122/133/4
f 124/135/7 136/148/7 135/147/6 123/134/6
f 125/136/8 137/149/8 136/148/7 124/135/7
f 126/137/9 138/150/10 137/149/8 125/136/8
f 127/138/11 139/151/11 138/152/9 126/139/9
f 128/140/13 140/153/13 139/151/11 127/138/11
f 129/141/14 141/154/14 140/153/13 128/140/13
f 130/142/15 142/155/15 141/154/14 129/141/14
f 131/143/16 143/156/28 142/155/15 130/142/15
f 132/132/2 144/145/2 143/156/16 131/143/16
f 133/144/1 145/157/1 156/158/2 144/145/2
f 134/146/4 146/159/5 145/157/1 133/144/1
f 135/147/6 147/160/6 146/159/4 134/146/4
f 136/148/7 148/161/7 147/160/6 135/147/6
f 137/149/8 149/162/8 148/161/7 136/148/7
f 138/150/9 150/163/9 149/162/8 137/149/8
f 139/151/11 151/164/11 150/165/9 138/152/9
f 140/153/13 152/166/13 151/164/11 139/151/11
f 141/154/14 153/167/14 152/166/13 140/153/13
f 142/155/15 154/168/15 153/167/14 141/154/14
f 143/156/16 155/169/16 154/168/15 142/155/15
f 144/145/2 156/158/2 155/169/16 143/156/16
f 145/157/1 157/170/1 168/171/2 156/158/2
f 146/159/4 158/172/5 157/170/1 145/157/1
f 147/160/6 159/173/6 158/172/4 146/159/4
f 148/161/7 160/174/7 159/173/6 147/160/6
f 149/162/8 161/175/8 160/174/7 148/161/7
f 150/163/9 162/176/9 161/175/8 149/162/8
f 151/164/11 163/177/11 162/178/9 150/165/9
f 152/166/13 164/179/13 163/177/11 151/164/11
f 153/167/14 165/180/14 164/179/13 152/166/13
f 154/168/15 166/181/15 165/180/14 153/167/14
f 155/169/16 167/182/16 166/181/15 154/168/17
f 156/158/2 168/171/2 167/182/16 155/169/16
f 157/170/1 169/183/1 180/184/2 168/171/2
f 158/172/4 170/185/4 169/183/1 157/170/20
f 159/173/6 171/186/29 170/185/4 158/172/4
f 160/174/7 172/187/7 171/186/6 159/173/6
f 161/175/8 173/188/8 172/187/7 160/174/7
f 162/176/9 174/189/9 173/188/8 161/175/8
f 163/177/11 175/190/11 174/191/9 162/178/9
f 164/179/13 176/192/13 175/190/11 163/177/11
f 165/180/14 177/193/14 176/192/13 164/179/13
f 166/181/15 178/194/15 177/193/14 165/180/14
f 167/182/16 179/195/16 178/194/15 166/181/15
f 168/171/2 180/184/2 179/195/16 167/182/16
f 169/183/1 181/196/1 192/197/2 180/184/2
f 170/185/4 182/198/4 181/196/1 169/183/1
f 171/186/6 183/199/6 182/198/4 170/185/4
f 172/187/7 184/200/7 183/199/6 171/186/6
f 173/188/8 185/201/8 184/200/7 172/187/7
f 174/189/9 186/202/9 185/201/8 173/188/8
f 175/190/11 187/203/11 186/204/9 174/191/9
f 176/192/13 188/205/13 187/203/11 175/190/11
f 177/193/14 189/206/14 188/205/13 176/192/13
f 178/194/15 190/207/15 189/206/14 177/193/14
f 179/195/16 191/208/16 190/207/15 178/194/15
f 180/184/2 192/197/2 191/208/16 179/195/16
f 181/196/1 193/209/30 204/210/31 192/197/2
f 182/198/4 194/211/32 193/209/30 181/196/1
f 183/199/6 195/212/33 194/211/32 182/198/4
f 184/200/7 196/213/34 195/212/33 183/199/6
f 185/201/8 197/214/35 196/213/34 184/200/7
f 186/202/9 198/215/36 197/214/35 185/201/26
f 187/203/11 199/216/37 198/217/36 186/204/12
f 188/205/13 200/218/38 199/216/37 187/203/11
f 189/206/14 201/219/39 200/218/38 188/205/13
f 190/207/15 202/220/40 201/219/39 189/206/14
f 191/208/16 203/221/41 202/220/40 190/207/15
f 192/197/2 204/210/31 203/221/41 191/208/42
