# Blender 4.2.1 LTS
# www.blender.org
mtllib roche.mtl
o Cylinder.012
v 0.414430 0.077598 -0.344065
v 0.540427 0.067028 -0.081308
v 0.439405 -0.036619 -0.313246
v 0.517612 -0.021642 -0.235736
v 0.506141 0.088276 -0.225813
v 0.528500 -0.044093 -0.127448
v 0.140496 0.583386 -0.030561
v 0.415898 0.349458 -0.010232
v 0.289900 0.360027 -0.272989
v 0.330564 0.428666 -0.033146
v 0.324327 0.428637 -0.124938
v 0.373201 0.366030 -0.150892
v 0.256756 0.434857 -0.187066
v 0.550031 0.044684 0.024306
v 0.486962 -0.080549 0.341151
v 0.553008 -0.076873 0.045750
v 0.555577 -0.097808 0.133438
v 0.532904 0.001768 0.164832
v 0.507169 -0.135753 0.199401
v 0.194525 0.459328 0.239220
v 0.446923 0.010256 0.364003
v 0.425502 0.327114 0.095382
v 0.330563 0.264787 0.300201
v 0.358073 0.350125 0.246165
v 0.408375 0.284197 0.235908
v 0.348360 0.387263 0.162553
v 0.447745 -0.109452 0.387289
v 0.171771 -0.234092 0.469324
v 0.396506 -0.213636 0.314991
v 0.330753 -0.261659 0.390614
v 0.305388 -0.169586 0.447105
v 0.229159 -0.306676 0.391495
v 0.023117 0.333002 0.440877
v 0.047241 0.048337 0.540400
v 0.407706 -0.018647 0.410141
v 0.046511 0.164801 0.517675
v 0.135495 0.186086 0.508024
v 0.176382 0.113219 0.508844
v 0.213185 0.178282 0.438292
v 0.072583 -0.277770 0.469102
v -0.183856 -0.363336 0.359810
v 0.067369 -0.380269 0.400460
v -0.015519 -0.415321 0.394520
v -0.062350 -0.329176 0.436958
v -0.082850 -0.430393 0.336438
v -0.203279 0.119564 0.416309
v -0.259162 -0.192547 0.402790
v -0.002722 -0.106981 0.512083
v -0.217461 -0.125101 0.413268
v -0.142985 -0.126233 0.467272
v -0.137655 -0.158387 0.479939
v -0.067242 -0.074978 0.477289
v -0.260783 -0.378422 0.284973
v -0.482749 -0.315448 0.070342
v -0.203395 -0.451005 0.207143
v -0.281602 -0.465982 0.129633
v -0.352494 -0.389100 0.166720
v -0.292489 -0.443531 0.021346
v -0.481476 0.237588 0.253779
v -0.554585 -0.152525 0.111344
v -0.385313 -0.095992 0.356048
v -0.539702 -0.071950 0.174468
v -0.483325 -0.020394 0.244288
v -0.468615 -0.101995 0.233952
v -0.430041 0.005791 0.314572
v -0.492352 -0.293104 -0.035272
v -0.354478 -0.241946 -0.421492
v -0.316998 -0.410751 -0.151852
v -0.319566 -0.389816 -0.239541
v -0.475225 -0.250187 -0.175798
v -0.307503 -0.348823 -0.381297
v -0.446877 0.160642 -0.066586
v -0.479007 0.040484 -0.350416
v -0.564189 -0.130180 0.005729
v -0.512151 0.115314 -0.264493
v -0.554285 -0.022727 -0.112221
v -0.547062 -0.087264 -0.134797
v -0.557499 -0.030547 -0.021232
v -0.291133 -0.195261 -0.496016
v -0.018125 -0.066732 -0.528416
v -0.190126 -0.262317 -0.519388
v -0.133333 -0.222728 -0.577193
v -0.183610 -0.128565 -0.572654
v -0.015148 -0.188289 -0.506973
v -0.275471 0.286969 -0.268244
v -0.142653 0.215698 -0.457340
v -0.415662 0.087169 -0.424941
v -0.219796 0.275847 -0.390169
v -0.330837 0.225205 -0.464467
v -0.308140 0.153864 -0.501578
v -0.394776 0.201819 -0.402584
v 0.101575 0.007047 -0.611864
v 0.358016 0.092613 -0.502571
v 0.189154 -0.077254 -0.590231
v 0.272042 -0.042202 -0.584292
v 0.236508 0.058453 -0.579719
v 0.339375 -0.027131 -0.526209
v -0.170450 0.485419 -0.186075
v 0.180869 0.327093 -0.333149
v -0.043467 0.259376 -0.457119
v 0.082109 0.389056 -0.311060
v 0.021921 0.357781 -0.373219
v 0.059361 0.292932 -0.410297
v -0.036006 0.356781 -0.389759
vn 0.6148 0.5980 -0.5142
vn 0.0886 -0.2062 0.9745
vn -0.5845 -0.4308 0.6876
vn -0.9152 -0.4030 -0.0020
vn -0.7098 -0.1392 -0.6905
vn -0.4253 0.1616 -0.8905
vn 0.7098 0.1392 0.6905
vn -0.4867 0.8266 0.2824
vn 0.9152 0.4030 0.0020
vn 0.7499 0.0605 -0.6588
vn 0.9848 0.0408 -0.1689
vn 0.5534 0.7996 -0.2332
vn 0.7213 0.6849 -0.1031
vn 0.5537 0.6989 -0.4527
vn 0.9894 0.1105 0.0940
vn 0.9427 -0.0961 0.3194
vn 0.4100 0.6544 0.6353
vn 0.5233 0.3980 0.7535
vn 0.7528 0.6116 0.2433
vn 0.6400 -0.4788 0.6010
vn 0.3126 -0.5011 0.8069
vn 0.3110 0.5815 0.7518
vn 0.1261 0.1497 0.9807
vn 0.5742 0.4304 0.6965
vn 0.0468 -0.4992 0.8652
vn -0.3384 -0.6277 0.7011
vn -0.4148 0.0861 0.9058
vn -0.5678 0.2248 0.7919
vn -0.3276 0.3049 0.8943
vn -0.4442 -0.7537 0.4844
vn -0.6072 -0.7932 0.0463
vn -0.7827 -0.0173 0.6222
vn -0.6836 -0.3005 0.6651
vn -0.7927 -0.1569 0.5891
vn -0.6737 -0.6994 -0.2387
vn -0.7447 -0.5807 -0.3290
vn -0.8694 0.4782 0.1247
vn -0.9503 -0.0343 -0.3094
vn -0.9960 -0.0056 -0.0887
vn -0.4771 -0.3050 -0.8242
vn 0.3688 0.0182 -0.9293
vn -0.3722 0.9102 -0.1815
vn 0.0615 0.6485 -0.7588
vn -0.6799 0.2173 -0.7003
vn 0.1649 0.0188 -0.9861
vn 0.5502 0.1474 -0.8219
vn 0.0930 0.8645 -0.4940
vn 0.3014 0.6494 -0.6981
vn 0.1985 0.5561 -0.8070
vn 0.9917 -0.0247 -0.1262
vn 0.6630 0.7423 0.0968
vn 0.5709 0.7974 0.1954
vn 0.7007 0.4634 -0.5424
vn 0.8760 0.4487 -0.1770
vn 0.8815 0.2961 0.3679
vn 0.9122 0.3475 0.2173
vn 0.7536 -0.5749 0.3188
vn 0.5384 0.4281 0.7258
vn 0.4466 0.5367 0.7159
vn 0.2522 -0.1127 0.9611
vn 0.3846 -0.0348 0.9224
vn 0.2801 -0.5655 0.7757
vn -0.5475 0.0820 0.8328
vn -0.3967 0.1684 0.9024
vn -0.4132 -0.3894 0.8232
vn -0.1158 -0.2901 0.9500
vn -0.3727 -0.7833 0.4975
vn -0.2920 0.1673 0.9417
vn -0.4390 0.0742 0.8954
vn -0.6660 -0.4255 0.6127
vn -0.7133 -0.4349 0.5496
vn -0.5829 -0.8077 -0.0884
vn -0.9892 0.0963 0.1103
vn -0.9452 0.3223 -0.0530
vn -0.8604 -0.2707 -0.4319
vn -0.9122 -0.3475 -0.2173
vn -0.4907 -0.4873 -0.7223
vn -0.8095 0.2510 -0.5308
vn -0.5870 0.8095 0.0082
vn 0.1404 0.2994 -0.9437
vn -0.5631 -0.0406 -0.8254
vn -0.2859 -0.3151 -0.9050
vn -0.2466 0.5639 -0.7882
vn -0.4826 0.6667 -0.5680
vn 0.2452 0.6826 -0.6884
vn 0.0618 0.5812 -0.8114
vn 0.9218 0.0131 -0.3874
vn 0.2207 0.7266 -0.6507
vn 0.0944 0.8090 -0.5801
vt 0.881893 0.897130
vt 0.900448 0.890353
vt 0.905329 0.902158
vt 0.889524 0.911643
vt 0.952168 0.725034
vt 0.960202 0.738089
vt 0.949232 0.738785
vt 0.943678 0.730597
vt 0.921696 0.748241
vt 0.928538 0.755529
vt 0.925482 0.766038
vt 0.914462 0.755403
vt 0.902154 0.778819
vt 0.907827 0.783324
vt 0.903957 0.790167
vt 0.897070 0.785809
vt 0.876936 0.815055
vt 0.890501 0.819749
vt 0.887900 0.827701
vt 0.874277 0.823900
vt 0.869132 0.856268
vt 0.888907 0.854244
vt 0.890131 0.865324
vt 0.873550 0.872352
vt 0.945454 0.967357
vt 0.948971 0.962647
vt 0.954947 0.966790
vt 0.951063 0.972009
vt 0.402108 0.529074
vt 0.385683 0.512043
vt 0.395650 0.484937
vt 0.402875 0.470515
vt 0.426324 0.470515
vt 0.442935 0.488417
vt 0.443036 0.513157
vt 0.425552 0.529482
vt 0.909689 0.935319
vt 0.922261 0.923989
vt 0.929417 0.931264
vt 0.917194 0.943381
vt 0.899804 0.923867
vt 0.894316 0.928511
vt 0.885113 0.919908
vt 0.901279 0.939053
vt 0.930929 0.899312
vt 0.923943 0.915851
vt 0.916952 0.910410
vt 0.913350 0.902446
vt 0.913252 0.913322
vt 0.928499 0.954397
vt 0.923770 0.959399
vt 0.915692 0.952760
vt 0.930878 0.967136
vt 0.951996 0.924571
vt 0.949773 0.942925
vt 0.942782 0.936618
vt 0.937426 0.929882
vt 0.939998 0.940423
vt 0.979332 0.709097
vt 0.964480 0.717514
vt 0.960386 0.711885
vt 0.968488 0.703502
vt 0.950036 0.716977
vt 0.978138 0.749843
vt 0.966778 0.741518
vt 0.973418 0.736762
vt 0.981722 0.732804
vt 0.971860 0.732491
vt 0.981973 0.714411
vt 0.932225 0.738772
vt 0.928417 0.734008
vt 0.935502 0.727774
vt 0.920692 0.739572
vt 0.950232 0.761272
vt 0.935030 0.755067
vt 0.939755 0.748292
vt 0.947375 0.745067
vt 0.938304 0.746499
vt 0.905042 0.765898
vt 0.900019 0.761240
vt 0.906877 0.751686
vt 0.890738 0.768895
vt 0.934230 0.788294
vt 0.913647 0.782415
vt 0.920924 0.778475
vt 0.927335 0.773250
vt 0.917404 0.775819
vt 0.890609 0.796319
vt 0.877570 0.794145
vt 0.880932 0.785313
vt 0.872720 0.808189
vt 0.915513 0.812780
vt 0.897102 0.817932
vt 0.901361 0.802138
vt 0.906201 0.796120
vt 0.898236 0.800575
vt 0.871102 0.836910
vt 0.865048 0.836126
vt 0.866259 0.826509
vt 0.860617 0.851139
vt 0.907271 0.841941
vt 0.896050 0.848758
vt 0.889151 0.839112
vt 0.892148 0.832970
vt 0.885476 0.838654
vt 0.875816 0.885402
vt 0.869843 0.887402
vt 0.866757 0.877672
vt 0.873232 0.897297
vt 0.918473 0.861470
vt 0.904255 0.882439
vt 0.898973 0.874825
vt 0.897763 0.869114
vt 0.894289 0.876591
vt 0.943893 0.983324
vt 0.969529 0.952918
vt 0.981973 0.938501
s 0
usemtl mine
f 93/1/1 99/2/1 9/3/1 1/4/1
f 28/5/2 34/6/2 48/7/2 40/8/2
f 41/9/3 47/10/3 61/11/3 53/12/3
f 54/13/4 60/14/4 74/15/4 66/16/4
f 67/17/5 73/18/5 87/19/5 79/20/5
f 80/21/6 86/22/6 100/23/6 92/24/6
f 15/25/7 21/26/7 35/27/7 27/28/7
f 20/29/8 7/30/8 98/31/8 85/32/8 72/33/8 59/34/8 46/35/8 33/36/8
f 2/37/9 8/38/9 22/39/9 14/40/9
f 1/4/10 5/41/10 4/42/10 3/43/10
f 2/37/11 6/44/11 4/42/11 5/41/11
f 7/45/12 10/46/12 11/47/12 13/48/12
f 8/38/13 12/49/13 11/47/13 10/46/13
f 9/3/14 13/48/14 11/47/14 12/49/14
f 14/40/15 18/50/15 17/51/15 16/52/15
f 15/25/16 19/53/16 17/51/16 18/50/16
f 20/54/17 23/55/17 24/56/17 26/57/17
f 21/26/18 25/58/18 24/56/18 23/55/18
f 22/39/19 26/57/19 24/56/19 25/58/19
f 27/59/20 31/60/20 30/61/20 29/62/20
f 28/5/21 32/63/21 30/61/21 31/60/21
f 33/64/22 36/65/22 37/66/22 39/67/22
f 34/6/23 38/68/23 37/66/23 36/65/23
f 35/69/24 39/67/24 37/66/24 38/68/24
f 40/8/25 44/70/25 43/71/25 42/72/25
f 41/9/26 45/73/26 43/71/26 44/70/26
f 46/74/27 49/75/27 50/76/27 52/77/27
f 47/10/28 51/78/28 50/76/28 49/75/28
f 48/7/29 52/77/29 50/76/29 51/78/29
f 53/12/30 57/79/30 56/80/30 55/81/30
f 54/13/31 58/82/31 56/80/31 57/79/31
f 59/83/32 62/84/32 63/85/32 65/86/32
f 60/14/33 64/87/33 63/85/33 62/84/33
f 61/11/34 65/86/34 63/85/34 64/87/34
f 66/16/35 70/88/35 69/89/35 68/90/35
f 67/17/36 71/91/36 69/89/36 70/88/36
f 72/92/37 75/93/37 76/94/37 78/95/37
f 73/18/38 77/96/38 76/94/38 75/93/38
f 74/15/39 78/95/39 76/94/39 77/96/39
f 79/20/40 83/97/40 82/98/40 81/99/40
f 80/21/41 84/100/41 82/98/41 83/97/41
f 85/101/42 88/102/42 89/103/42 91/104/42
f 86/22/43 90/105/43 89/103/43 88/102/43
f 87/19/44 91/104/44 89/103/44 90/105/44
f 92/24/45 96/106/45 95/107/45 94/108/45
f 93/1/46 97/109/46 95/107/46 96/106/46
f 98/110/47 101/111/47 102/112/47 104/113/47
f 99/2/48 103/114/48 102/112/48 101/111/48
f 100/23/49 104/113/49 102/112/49 103/114/49
f 2/37/50 14/40/50 16/52/50 6/44/50
f 22/39/51 8/38/51 10/46/51 26/57/51
f 26/57/52 10/46/52 7/45/52 20/54/52
f 1/4/53 9/3/53 12/49/53 5/41/53
f 5/41/54 12/49/54 8/38/54 2/37/54
f 21/26/55 15/25/55 18/50/55 25/58/55
f 25/58/56 18/50/56 14/40/56 22/39/56
f 15/25/57 27/28/57 29/115/57 19/53/57
f 35/27/58 21/26/58 23/55/58 39/116/58
f 39/116/59 23/55/59 20/54/59 33/117/59
f 34/6/60 28/5/60 31/60/60 38/68/60
f 38/68/61 31/60/61 27/59/61 35/69/61
f 28/5/62 40/8/62 42/72/62 32/63/62
f 48/7/63 34/6/63 36/65/63 52/77/63
f 52/77/64 36/65/64 33/64/64 46/74/64
f 47/10/65 41/9/65 44/70/65 51/78/65
f 51/78/66 44/70/66 40/8/66 48/7/66
f 41/9/67 53/12/67 55/81/67 45/73/67
f 61/11/68 47/10/68 49/75/68 65/86/68
f 65/86/69 49/75/69 46/74/69 59/83/69
f 60/14/70 54/13/70 57/79/70 64/87/70
f 64/87/71 57/79/71 53/12/71 61/11/71
f 54/13/72 66/16/72 68/90/72 58/82/72
f 74/15/73 60/14/73 62/84/73 78/95/73
f 78/95/74 62/84/74 59/83/74 72/92/74
f 73/18/75 67/17/75 70/88/75 77/96/75
f 77/96/76 70/88/76 66/16/76 74/15/76
f 67/17/77 79/20/77 81/99/77 71/91/77
f 87/19/78 73/18/78 75/93/78 91/104/78
f 91/104/79 75/93/79 72/92/79 85/101/79
f 86/22/80 80/21/80 83/97/80 90/105/80
f 90/105/81 83/97/81 79/20/81 87/19/81
f 80/21/82 92/24/82 94/108/82 84/100/82
f 100/23/83 86/22/83 88/102/83 104/113/83
f 104/113/84 88/102/84 85/101/84 98/110/84
f 99/2/85 93/1/85 96/106/85 103/114/85
f 103/114/86 96/106/86 92/24/86 100/23/86
f 93/1/87 1/4/87 3/43/87 97/109/87
f 9/3/88 99/2/88 101/111/88 13/48/88
f 13/48/89 101/111/89 98/110/89 7/45/89
